<?xml version="1.0" encoding="UTF-8" standalone="no" ?>
<!DOCTYPE svg PUBLIC "-//W3C//DTD SVG 1.1//EN" "http://www.w3.org/Graphics/SVG/1.1/DTD/svg11.dtd">
<svg xmlns="http://www.w3.org/2000/svg" xmlns:xlink="http://www.w3.org/1999/xlink" version="1.1" width="1024" height="1024" viewBox="0 0 1024 1024" xml:space="preserve">
<desc>Created with Fabric.js 2.4.6</desc>
<defs>
</defs>
<rect x="0" y="0" width="100%" height="100%" fill="rgb(255,255,255)"></rect>
<g transform="matrix(1.57 0 0 1 512 512)" id="background-logo"  >
<rect style="stroke: none; stroke-width: 1; stroke-dasharray: none; stroke-linecap: butt; stroke-dashoffset: 0; stroke-linejoin: miter; stroke-miterlimit: 4; fill: rgb(255,255,255); fill-rule: nonzero; opacity: 1;"  paint-order="stroke"  x="-325" y="-512" rx="0" ry="0" width="650" height="1024" />
</g>
<g transform="matrix(1.58 0 0 1.58 512 452.2)" style="" id="logo-logo"  >
	<g transform="matrix(2.09 0 0 -2.09 -144.9 -49.65)" id="logo-logo"  >
<path style="stroke: none; stroke-width: 1; stroke-dasharray: none; stroke-linecap: butt; stroke-dashoffset: 0; stroke-linejoin: miter; stroke-miterlimit: 4; fill: rgb(52,109,191); fill-rule: nonzero; opacity: 1;"  paint-order="stroke"  transform=" translate(2.83, 3.63)" d="m 0 0 c -2.738 -0.351 -4.105 -0.532 -6.84 -0.896 c 0.466 -2.532 0.699 -3.807 1.167 -6.369 c 2.74 0.368 4.115 0.549 6.862 0.899 C 0.712 -3.801 0.474 -2.527 0 0" stroke-linecap="round" />
</g>
	<g transform="matrix(2.09 0 0 -2.09 -128.16 -51.8)" id="logo-logo"  >
<path style="stroke: none; stroke-width: 1; stroke-dasharray: none; stroke-linecap: butt; stroke-dashoffset: 0; stroke-linejoin: miter; stroke-miterlimit: 4; fill: rgb(52,109,191); fill-rule: nonzero; opacity: 1;"  paint-order="stroke"  transform=" translate(2.82, 3.61)" d="m 0 0 c -2.745 -0.334 -4.115 -0.508 -6.856 -0.859 c 0.477 -2.525 0.714 -3.8 1.192 -6.365 c 2.747 0.349 4.123 0.52 6.876 0.854 C 0.728 -3.8 0.482 -2.524 0 0" stroke-linecap="round" />
</g>
	<g transform="matrix(2.09 0 0 -2.09 -111.4 -53.83)" id="logo-logo"  >
<path style="stroke: none; stroke-width: 1; stroke-dasharray: none; stroke-linecap: butt; stroke-dashoffset: 0; stroke-linejoin: miter; stroke-miterlimit: 4; fill: rgb(52,109,191); fill-rule: nonzero; opacity: 1;"  paint-order="stroke"  transform=" translate(2.81, 3.59)" d="m 0 0 c -2.749 -0.319 -4.122 -0.482 -6.868 -0.813 c 0.487 -2.524 0.728 -3.8 1.218 -6.368 c 2.753 0.331 4.131 0.493 6.89 0.811 C 0.741 -3.803 0.494 -2.526 0 0" stroke-linecap="round" />
</g>
	<g transform="matrix(2.09 0 0 -2.09 -94.6 -55.75)" id="logo-logo"  >
<path style="stroke: none; stroke-width: 1; stroke-dasharray: none; stroke-linecap: butt; stroke-dashoffset: 0; stroke-linejoin: miter; stroke-miterlimit: 4; fill: rgb(52,109,191); fill-rule: nonzero; opacity: 1;"  paint-order="stroke"  transform=" translate(2.81, 3.56)" d="m 0 0 c -2.751 -0.293 -4.127 -0.447 -6.877 -0.759 c 0.496 -2.523 0.744 -3.801 1.243 -6.367 c 2.758 0.313 4.136 0.461 6.899 0.756 C 0.757 -3.797 0.504 -2.522 0 0" stroke-linecap="round" />
</g>
	<g transform="matrix(2.09 0 0 -2.09 -77.79 -57.53)" id="logo-logo"  >
<path style="stroke: none; stroke-width: 1; stroke-dasharray: none; stroke-linecap: butt; stroke-dashoffset: 0; stroke-linejoin: miter; stroke-miterlimit: 4; fill: rgb(52,109,191); fill-rule: nonzero; opacity: 1;"  paint-order="stroke"  transform=" translate(2.8, 3.54)" d="m 0 0 c -2.754 -0.271 -4.132 -0.408 -6.884 -0.699 c 0.504 -2.525 0.758 -3.804 1.267 -6.373 c 2.763 0.292 4.141 0.432 6.906 0.7 C 0.772 -3.8 0.514 -2.521 0 0" stroke-linecap="round" />
</g>
	<g transform="matrix(2.09 0 0 -2.09 -60.96 -59.17)" id="logo-logo"  >
<path style="stroke: none; stroke-width: 1; stroke-dasharray: none; stroke-linecap: butt; stroke-dashoffset: 0; stroke-linejoin: miter; stroke-miterlimit: 4; fill: rgb(52,109,191); fill-rule: nonzero; opacity: 1;"  paint-order="stroke"  transform=" translate(2.79, 3.51)" d="m 0 0 c -2.755 -0.244 -4.134 -0.375 -6.888 -0.642 c 0.513 -2.52 0.773 -3.798 1.292 -6.369 c 2.763 0.265 4.143 0.388 6.909 0.636 C 0.785 -3.801 0.522 -2.522 0 0" stroke-linecap="round" />
</g>
	<g transform="matrix(2.09 0 0 -2.09 -44.13 -60.64)" id="logo-logo"  >
<path style="stroke: none; stroke-width: 1; stroke-dasharray: none; stroke-linecap: butt; stroke-dashoffset: 0; stroke-linejoin: miter; stroke-miterlimit: 4; fill: rgb(52,109,191); fill-rule: nonzero; opacity: 1;"  paint-order="stroke"  transform=" translate(2.78, 3.47)" d="m 0 0 c -2.757 -0.214 -4.136 -0.331 -6.891 -0.571 c 0.523 -2.524 0.786 -3.8 1.316 -6.375 c 2.763 0.237 4.142 0.355 6.906 0.568 C 0.798 -3.797 0.529 -2.524 0 0" stroke-linecap="round" />
</g>
	<g transform="matrix(2.09 0 0 -2.09 -27.3 -61.94)" id="logo-logo"  >
<path style="stroke: none; stroke-width: 1; stroke-dasharray: none; stroke-linecap: butt; stroke-dashoffset: 0; stroke-linejoin: miter; stroke-miterlimit: 4; fill: rgb(52,109,191); fill-rule: nonzero; opacity: 1;"  paint-order="stroke"  transform=" translate(2.77, 3.44)" d="m 0 0 c -2.757 -0.186 -4.135 -0.29 -6.89 -0.5 c 0.533 -2.522 0.8 -3.798 1.337 -6.38 c 2.763 0.215 4.145 0.311 6.908 0.5 C 0.809 -3.798 0.539 -2.522 0 0" stroke-linecap="round" />
</g>
	<g transform="matrix(2.09 0 0 -2.09 -10.48 -63.06)" id="logo-logo"  >
<path style="stroke: none; stroke-width: 1; stroke-dasharray: none; stroke-linecap: butt; stroke-dashoffset: 0; stroke-linejoin: miter; stroke-miterlimit: 4; fill: rgb(52,109,191); fill-rule: nonzero; opacity: 1;"  paint-order="stroke"  transform=" translate(2.76, 3.41)" d="m 0 0 c -2.752 -0.159 -4.131 -0.241 -6.886 -0.423 c 0.539 -2.522 0.81 -3.802 1.357 -6.388 c 2.762 0.184 4.142 0.268 6.9 0.422 C 0.821 -3.805 0.548 -2.527 0 0" stroke-linecap="round" />
</g>
	<g transform="matrix(2.09 0 0 -2.09 56.6 -65.46)" id="logo-logo"  >
<path style="stroke: none; stroke-width: 1; stroke-dasharray: none; stroke-linecap: butt; stroke-dashoffset: 0; stroke-linejoin: miter; stroke-miterlimit: 4; fill: rgb(52,109,191); fill-rule: nonzero; opacity: 1;"  paint-order="stroke"  transform=" translate(2.71, 3.24)" d="m 0 0 c -2.731 -0.007 -4.104 -0.02 -6.844 -0.062 c 0.566 -2.526 0.85 -3.809 1.42 -6.409 c 2.742 0.042 4.113 0.054 6.851 0.06 C 0.854 -3.813 0.569 -2.528 0 0" stroke-linecap="round" />
</g>
	<g transform="matrix(2.09 0 0 -2.09 89.92 -65.23)" id="logo-logo"  >
<path style="stroke: none; stroke-width: 1; stroke-dasharray: none; stroke-linecap: butt; stroke-dashoffset: 0; stroke-linejoin: miter; stroke-miterlimit: 4; fill: rgb(52,109,191); fill-rule: nonzero; opacity: 1;"  paint-order="stroke"  transform=" translate(2.69, 3.14)" d="m 0 0 c -2.718 0.083 -4.08 0.113 -6.808 0.151 c 0.57 -2.527 0.856 -3.811 1.431 -6.417 c 2.727 -0.044 4.09 -0.075 6.81 -0.158 C 0.855 -3.814 0.571 -2.526 0 0" stroke-linecap="round" />
</g>
	<g transform="matrix(2.09 0 0 -2.09 123.01 -63.92)" id="logo-logo"  >
<path style="stroke: none; stroke-width: 1; stroke-dasharray: none; stroke-linecap: butt; stroke-dashoffset: 0; stroke-linejoin: miter; stroke-miterlimit: 4; fill: rgb(52,109,191); fill-rule: nonzero; opacity: 1;"  paint-order="stroke"  transform=" translate(2.67, 3.03)" d="m 0 0 c -2.701 0.173 -4.051 0.25 -6.762 0.383 c 0.572 -2.528 0.856 -3.82 1.433 -6.434 c 2.707 -0.135 4.058 -0.212 6.756 -0.388 C 0.854 -3.824 0.568 -2.53 0 0" stroke-linecap="round" />
</g>
	<g transform="matrix(2.09 0 0 -2.09 139.45 -62.83)" id="logo-logo"  >
<path style="stroke: none; stroke-width: 1; stroke-dasharray: none; stroke-linecap: butt; stroke-dashoffset: 0; stroke-linejoin: miter; stroke-miterlimit: 4; fill: rgb(52,109,191); fill-rule: nonzero; opacity: 1;"  paint-order="stroke"  transform=" translate(2.66, 2.97)" d="m 0 0 c -2.686 0.225 -4.031 0.326 -6.73 0.505 c 0.567 -2.531 0.85 -3.821 1.425 -6.439 c 2.695 -0.185 4.038 -0.287 6.72 -0.515 C 0.845 -3.825 0.564 -2.531 0 0" stroke-linecap="round" />
</g>
	<g transform="matrix(2.09 0 0 -2.09 155.83 -61.43)" id="logo-logo"  >
<path style="stroke: none; stroke-width: 1; stroke-dasharray: none; stroke-linecap: butt; stroke-dashoffset: 0; stroke-linejoin: miter; stroke-miterlimit: 4; fill: rgb(52,109,191); fill-rule: nonzero; opacity: 1;"  paint-order="stroke"  transform=" translate(2.65, 2.91)" d="m 0 0 c -2.677 0.279 -4.016 0.405 -6.699 0.636 c 0.56 -2.532 0.844 -3.823 1.41 -6.449 C -2.607 -6.049 -1.271 -6.179 1.4 -6.456 C 0.836 -3.831 0.558 -2.535 0 0" stroke-linecap="round" />
</g>
	<g transform="matrix(2.09 0 0 -2.09 -141.99 -33.85)" id="logo-logo"  >
<path style="stroke: none; stroke-width: 1; stroke-dasharray: none; stroke-linecap: butt; stroke-dashoffset: 0; stroke-linejoin: miter; stroke-miterlimit: 4; fill: rgb(52,109,191); fill-rule: nonzero; opacity: 1;"  paint-order="stroke"  transform=" translate(2.83, 3.68)" d="m 0 0 c -2.75 -0.351 -4.121 -0.532 -6.864 -0.898 c 0.468 -2.568 0.703 -3.863 1.174 -6.459 c 2.751 0.366 4.129 0.543 6.886 0.891 C 0.717 -3.867 0.478 -2.571 0 0" stroke-linecap="round" />
</g>
	<g transform="matrix(2.09 0 0 -2.09 -125.19 -35.99)" id="logo-logo"  >
<path style="stroke: none; stroke-width: 1; stroke-dasharray: none; stroke-linecap: butt; stroke-dashoffset: 0; stroke-linejoin: miter; stroke-miterlimit: 4; fill: rgb(52,109,191); fill-rule: nonzero; opacity: 1;"  paint-order="stroke"  transform=" translate(2.83, 3.66)" d="m 0 0 c -2.756 -0.335 -4.132 -0.509 -6.881 -0.858 c 0.477 -2.573 0.717 -3.865 1.198 -6.468 c 2.76 0.35 4.141 0.519 6.904 0.853 C 0.73 -3.87 0.487 -2.574 0 0" stroke-linecap="round" />
</g>
	<g transform="matrix(2.09 0 0 -2.09 -108.36 -38.01)" id="logo-logo"  >
<path style="stroke: none; stroke-width: 1; stroke-dasharray: none; stroke-linecap: butt; stroke-dashoffset: 0; stroke-linejoin: miter; stroke-miterlimit: 4; fill: rgb(52,109,191); fill-rule: nonzero; opacity: 1;"  paint-order="stroke"  transform=" translate(2.82, 3.64)" d="m 0 0 c -2.761 -0.317 -4.139 -0.477 -6.895 -0.807 c 0.489 -2.576 0.735 -3.875 1.227 -6.478 c 2.764 0.327 4.148 0.491 6.917 0.805 C 0.747 -3.875 0.496 -2.578 0 0" stroke-linecap="round" />
</g>
	<g transform="matrix(2.09 0 0 -2.09 -91.5 -39.92)" id="logo-logo"  >
<path style="stroke: none; stroke-width: 1; stroke-dasharray: none; stroke-linecap: butt; stroke-dashoffset: 0; stroke-linejoin: miter; stroke-miterlimit: 4; fill: rgb(52,109,191); fill-rule: nonzero; opacity: 1;"  paint-order="stroke"  transform=" translate(2.81, 3.62)" d="m 0 0 c -2.764 -0.294 -4.145 -0.445 -6.902 -0.755 c 0.498 -2.578 0.745 -3.874 1.248 -6.482 c 2.77 0.304 4.157 0.455 6.927 0.746 C 0.76 -3.881 0.507 -2.579 0 0" stroke-linecap="round" />
</g>
	<g transform="matrix(2.09 0 0 -2.09 -74.63 -41.68)" id="logo-logo"  >
<path style="stroke: none; stroke-width: 1; stroke-dasharray: none; stroke-linecap: butt; stroke-dashoffset: 0; stroke-linejoin: miter; stroke-miterlimit: 4; fill: rgb(52,109,191); fill-rule: nonzero; opacity: 1;"  paint-order="stroke"  transform=" translate(2.8, 3.6)" d="m 0 0 c -2.765 -0.27 -4.146 -0.411 -6.909 -0.7 c 0.508 -2.58 0.763 -3.878 1.276 -6.492 c 2.774 0.285 4.159 0.425 6.934 0.692 C 0.78 -3.884 0.518 -2.581 0 0" stroke-linecap="round" />
</g>
	<g transform="matrix(2.09 0 0 -2.09 -57.74 -43.3)" id="logo-logo"  >
<path style="stroke: none; stroke-width: 1; stroke-dasharray: none; stroke-linecap: butt; stroke-dashoffset: 0; stroke-linejoin: miter; stroke-miterlimit: 4; fill: rgb(52,109,191); fill-rule: nonzero; opacity: 1;"  paint-order="stroke"  transform=" translate(2.8, 3.57)" d="m 0 0 c -2.765 -0.243 -4.15 -0.372 -6.914 -0.637 c 0.521 -2.584 0.78 -3.886 1.305 -6.506 c 2.772 0.265 4.156 0.392 6.931 0.628 C 0.79 -3.89 0.525 -2.585 0 0" stroke-linecap="round" />
</g>
	<g transform="matrix(2.09 0 0 -2.09 -40.85 -44.76)" id="logo-logo"  >
<path style="stroke: none; stroke-width: 1; stroke-dasharray: none; stroke-linecap: butt; stroke-dashoffset: 0; stroke-linejoin: miter; stroke-miterlimit: 4; fill: rgb(52,109,191); fill-rule: nonzero; opacity: 1;"  paint-order="stroke"  transform=" translate(2.78, 3.54)" d="m 0 0 c -2.762 -0.212 -4.146 -0.332 -6.912 -0.57 c 0.529 -2.585 0.795 -3.889 1.326 -6.512 c 2.773 0.238 4.16 0.346 6.934 0.559 C 0.807 -3.896 0.539 -2.586 0 0" stroke-linecap="round" />
</g>
	<g transform="matrix(2.09 0 0 -2.09 -23.97 -46.04)" id="logo-logo"  >
<path style="stroke: none; stroke-width: 1; stroke-dasharray: none; stroke-linecap: butt; stroke-dashoffset: 0; stroke-linejoin: miter; stroke-miterlimit: 4; fill: rgb(52,109,191); fill-rule: nonzero; opacity: 1;"  paint-order="stroke"  transform=" translate(2.77, 3.51)" d="m 0 0 c -2.763 -0.182 -4.148 -0.284 -6.91 -0.494 c 0.538 -2.589 0.807 -3.895 1.349 -6.527 c 2.773 0.209 4.159 0.308 6.929 0.489 C 0.818 -3.902 0.544 -2.589 0 0" stroke-linecap="round" />
</g>
	<g transform="matrix(2.09 0 0 -2.09 -7.1 -47.15)" id="logo-logo"  >
<path style="stroke: none; stroke-width: 1; stroke-dasharray: none; stroke-linecap: butt; stroke-dashoffset: 0; stroke-linejoin: miter; stroke-miterlimit: 4; fill: rgb(52,109,191); fill-rule: nonzero; opacity: 1;"  paint-order="stroke"  transform=" translate(2.76, 3.48)" d="m 0 0 c -2.762 -0.153 -4.144 -0.237 -6.905 -0.418 c 0.546 -2.588 0.817 -3.899 1.369 -6.533 c 2.771 0.175 4.153 0.256 6.92 0.406 C 0.829 -3.908 0.552 -2.595 0 0" stroke-linecap="round" />
</g>
	<g transform="matrix(2.09 0 0 -2.09 9.76 -48.05)" id="logo-logo"  >
<path style="stroke: none; stroke-width: 1; stroke-dasharray: none; stroke-linecap: butt; stroke-dashoffset: 0; stroke-linejoin: miter; stroke-miterlimit: 4; fill: rgb(52,109,191); fill-rule: nonzero; opacity: 1;"  paint-order="stroke"  transform=" translate(2.75, 3.44)" d="m 0 0 c -2.755 -0.116 -4.137 -0.189 -6.898 -0.332 c 0.556 -2.593 0.831 -3.911 1.389 -6.551 c 2.766 0.144 4.152 0.209 6.912 0.325 C 0.841 -3.912 0.561 -2.598 0 0" stroke-linecap="round" />
</g>
	<g transform="matrix(2.09 0 0 -2.09 26.59 -48.75)" id="logo-logo"  >
<path style="stroke: none; stroke-width: 1; stroke-dasharray: none; stroke-linecap: butt; stroke-dashoffset: 0; stroke-linejoin: miter; stroke-miterlimit: 4; fill: rgb(52,109,191); fill-rule: nonzero; opacity: 1;"  paint-order="stroke"  transform=" translate(2.73, 3.4)" d="m 0 0 c -2.753 -0.082 -4.131 -0.132 -6.885 -0.245 c 0.56 -2.6 0.841 -3.913 1.405 -6.56 c 2.764 0.107 4.141 0.156 6.899 0.235 C 0.847 -3.919 0.563 -2.603 0 0" stroke-linecap="round" />
</g>
	<g transform="matrix(2.09 0 0 -2.09 60.13 -49.45)" id="logo-logo"  >
<path style="stroke: none; stroke-width: 1; stroke-dasharray: none; stroke-linecap: butt; stroke-dashoffset: 0; stroke-linejoin: miter; stroke-miterlimit: 4; fill: rgb(52,109,191); fill-rule: nonzero; opacity: 1;"  paint-order="stroke"  transform=" translate(2.71, 3.32)" d="m 0 0 c -2.74 0 -4.108 -0.014 -6.853 -0.052 c 0.57 -2.608 0.857 -3.93 1.431 -6.587 c 2.748 0.034 4.122 0.04 6.863 0.041 C 0.862 -3.935 0.574 -2.61 0 0" stroke-linecap="round" />
</g>
	<g transform="matrix(2.09 0 0 -2.09 76.82 -49.43)" id="logo-logo"  >
<path style="stroke: none; stroke-width: 1; stroke-dasharray: none; stroke-linecap: butt; stroke-dashoffset: 0; stroke-linejoin: miter; stroke-miterlimit: 4; fill: rgb(52,109,191); fill-rule: nonzero; opacity: 1;"  paint-order="stroke"  transform=" translate(2.69, 3.28)" d="M 0 0 C -2.729 0.04 -4.095 0.047 -6.834 0.048 C -6.26 -2.56 -5.969 -3.885 -5.39 -6.551 C -2.65 -6.559 -1.284 -6.573 1.446 -6.612 C 0.865 -3.942 0.576 -2.614 0 0" stroke-linecap="round" />
</g>
	<g transform="matrix(2.09 0 0 -2.09 93.47 -49.16)" id="logo-logo"  >
<path style="stroke: none; stroke-width: 1; stroke-dasharray: none; stroke-linecap: butt; stroke-dashoffset: 0; stroke-linejoin: miter; stroke-miterlimit: 4; fill: rgb(52,109,191); fill-rule: nonzero; opacity: 1;"  paint-order="stroke"  transform=" translate(2.68, 3.24)" d="m 0 0 c -2.72 0.086 -4.08 0.115 -6.81 0.157 c 0.578 -2.616 0.866 -3.94 1.448 -6.611 c 2.73 -0.048 4.093 -0.086 6.813 -0.175 C 0.868 -3.951 0.578 -2.619 0 0" stroke-linecap="round" />
</g>
	<g transform="matrix(2.09 0 0 -2.09 110.05 -48.62)" id="logo-logo"  >
<path style="stroke: none; stroke-width: 1; stroke-dasharray: none; stroke-linecap: butt; stroke-dashoffset: 0; stroke-linejoin: miter; stroke-miterlimit: 4; fill: rgb(52,109,191); fill-rule: nonzero; opacity: 1;"  paint-order="stroke"  transform=" translate(2.66, 3.19)" d="m 0 0 c -2.707 0.128 -4.066 0.183 -6.781 0.273 c 0.576 -2.623 0.867 -3.951 1.45 -6.629 c 2.719 -0.097 4.073 -0.153 6.783 -0.29 C 0.867 -3.958 0.577 -2.625 0 0" stroke-linecap="round" />
</g>
	<g transform="matrix(2.09 0 0 -2.09 -155.88 -15.64)" id="logo-logo"  >
<path style="stroke: none; stroke-width: 1; stroke-dasharray: none; stroke-linecap: butt; stroke-dashoffset: 0; stroke-linejoin: miter; stroke-miterlimit: 4; fill: rgb(52,109,191); fill-rule: nonzero; opacity: 1;"  paint-order="stroke"  transform=" translate(2.85, 3.72)" d="m 0 0 c -2.753 -0.364 -4.126 -0.552 -6.874 -0.928 c 0.461 -2.597 0.693 -3.901 1.159 -6.511 c 2.754 0.376 4.133 0.562 6.894 0.918 C 0.706 -3.905 0.472 -2.6 0 0" stroke-linecap="round" />
</g>
	<g transform="matrix(2.09 0 0 -2.09 -139.06 -17.85)" id="logo-logo"  >
<path style="stroke: none; stroke-width: 1; stroke-dasharray: none; stroke-linecap: butt; stroke-dashoffset: 0; stroke-linejoin: miter; stroke-miterlimit: 4; fill: rgb(52,109,191); fill-rule: nonzero; opacity: 1;"  paint-order="stroke"  transform=" translate(2.84, 3.71)" d="m 0 0 c -2.76 -0.348 -4.137 -0.531 -6.893 -0.892 c 0.474 -2.601 0.71 -3.903 1.183 -6.522 c 2.761 0.359 4.143 0.535 6.914 0.884 C 0.722 -3.913 0.478 -2.603 0 0" stroke-linecap="round" />
</g>
	<g transform="matrix(2.09 0 0 -2.09 -122.19 -19.97)" id="logo-logo"  >
<path style="stroke: none; stroke-width: 1; stroke-dasharray: none; stroke-linecap: butt; stroke-dashoffset: 0; stroke-linejoin: miter; stroke-miterlimit: 4; fill: rgb(52,109,191); fill-rule: nonzero; opacity: 1;"  paint-order="stroke"  transform=" translate(2.84, 3.69)" d="m 0 0 c -2.764 -0.335 -4.146 -0.507 -6.908 -0.853 c 0.483 -2.603 0.724 -3.912 1.211 -6.532 c 2.77 0.342 4.155 0.512 6.93 0.834 C 0.739 -3.922 0.491 -2.609 0 0" stroke-linecap="round" />
</g>
	<g transform="matrix(2.09 0 0 -2.09 -105.3 -21.96)" id="logo-logo"  >
<path style="stroke: none; stroke-width: 1; stroke-dasharray: none; stroke-linecap: butt; stroke-dashoffset: 0; stroke-linejoin: miter; stroke-miterlimit: 4; fill: rgb(52,109,191); fill-rule: nonzero; opacity: 1;"  paint-order="stroke"  transform=" translate(2.83, 3.68)" d="m 0 0 c -2.769 -0.314 -4.155 -0.474 -6.919 -0.803 c 0.491 -2.609 0.74 -3.919 1.232 -6.549 c 2.777 0.326 4.166 0.483 6.945 0.788 C 0.752 -3.929 0.503 -2.614 0 0" stroke-linecap="round" />
</g>
	<g transform="matrix(2.09 0 0 -2.09 -88.38 -23.83)" id="logo-logo"  >
<path style="stroke: none; stroke-width: 1; stroke-dasharray: none; stroke-linecap: butt; stroke-dashoffset: 0; stroke-linejoin: miter; stroke-miterlimit: 4; fill: rgb(52,109,191); fill-rule: nonzero; opacity: 1;"  paint-order="stroke"  transform=" translate(2.82, 3.65)" d="m 0 0 c -2.771 -0.29 -4.158 -0.44 -6.929 -0.747 c 0.505 -2.614 0.756 -3.926 1.264 -6.562 c 2.777 0.306 4.169 0.449 6.95 0.737 C 0.77 -3.937 0.512 -2.618 0 0" stroke-linecap="round" />
</g>
	<g transform="matrix(2.09 0 0 -2.09 -71.44 -25.57)" id="logo-logo"  >
<path style="stroke: none; stroke-width: 1; stroke-dasharray: none; stroke-linecap: butt; stroke-dashoffset: 0; stroke-linejoin: miter; stroke-miterlimit: 4; fill: rgb(52,109,191); fill-rule: nonzero; opacity: 1;"  paint-order="stroke"  transform=" translate(2.81, 3.63)" d="m 0 0 c -2.774 -0.268 -4.159 -0.404 -6.932 -0.687 c 0.514 -2.62 0.771 -3.938 1.286 -6.578 c 2.783 0.281 4.172 0.415 6.955 0.676 C 0.784 -3.945 0.522 -2.625 0 0" stroke-linecap="round" />
</g>
	<g transform="matrix(2.09 0 0 -2.09 -54.5 -27.16)" id="logo-logo"  >
<path style="stroke: none; stroke-width: 1; stroke-dasharray: none; stroke-linecap: butt; stroke-dashoffset: 0; stroke-linejoin: miter; stroke-miterlimit: 4; fill: rgb(52,109,191); fill-rule: nonzero; opacity: 1;"  paint-order="stroke"  transform=" translate(2.8, 3.61)" d="m 0 0 c -2.774 -0.236 -4.161 -0.364 -6.937 -0.625 c 0.524 -2.623 0.787 -3.942 1.314 -6.589 c 2.786 0.253 4.177 0.379 6.958 0.611 C 0.802 -3.953 0.533 -2.63 0 0" stroke-linecap="round" />
</g>
	<g transform="matrix(2.09 0 0 -2.09 -20.61 -29.84)" id="logo-logo"  >
<path style="stroke: none; stroke-width: 1; stroke-dasharray: none; stroke-linecap: butt; stroke-dashoffset: 0; stroke-linejoin: miter; stroke-miterlimit: 4; fill: rgb(52,109,191); fill-rule: nonzero; opacity: 1;"  paint-order="stroke"  transform=" translate(2.78, 3.55)" d="m 0 0 c -2.771 -0.181 -4.157 -0.279 -6.933 -0.483 c 0.542 -2.636 0.818 -3.964 1.362 -6.624 c 2.783 0.199 4.173 0.295 6.952 0.466 C 0.827 -3.969 0.552 -2.64 0 0" stroke-linecap="round" />
</g>
	<g transform="matrix(2.09 0 0 -2.09 -3.68 -30.9)" id="logo-logo"  >
<path style="stroke: none; stroke-width: 1; stroke-dasharray: none; stroke-linecap: butt; stroke-dashoffset: 0; stroke-linejoin: miter; stroke-miterlimit: 4; fill: rgb(52,109,191); fill-rule: nonzero; opacity: 1;"  paint-order="stroke"  transform=" translate(2.76, 3.52)" d="m 0 0 c -2.767 -0.148 -4.153 -0.231 -6.924 -0.408 c 0.549 -2.64 0.826 -3.971 1.382 -6.638 c 2.779 0.17 4.168 0.249 6.941 0.389 C 0.84 -3.982 0.56 -2.646 0 0" stroke-linecap="round" />
</g>
	<g transform="matrix(2.09 0 0 -2.09 13.22 -31.77)" id="logo-logo"  >
<path style="stroke: none; stroke-width: 1; stroke-dasharray: none; stroke-linecap: butt; stroke-dashoffset: 0; stroke-linejoin: miter; stroke-miterlimit: 4; fill: rgb(52,109,191); fill-rule: nonzero; opacity: 1;"  paint-order="stroke"  transform=" translate(2.75, 3.49)" d="m 0 0 c -2.763 -0.114 -4.148 -0.176 -6.913 -0.318 c 0.556 -2.651 0.838 -3.985 1.402 -6.661 c 2.774 0.139 4.161 0.2 6.93 0.308 C 0.849 -3.991 0.563 -2.65 0 0" stroke-linecap="round" />
</g>
	<g transform="matrix(2.09 0 0 -2.09 30.08 -32.43)" id="logo-logo"  >
<path style="stroke: none; stroke-width: 1; stroke-dasharray: none; stroke-linecap: butt; stroke-dashoffset: 0; stroke-linejoin: miter; stroke-miterlimit: 4; fill: rgb(52,109,191); fill-rule: nonzero; opacity: 1;"  paint-order="stroke"  transform=" translate(2.73, 3.45)" d="m 0 0 c -2.759 -0.077 -4.137 -0.127 -6.9 -0.233 c 0.567 -2.653 0.853 -3.992 1.422 -6.674 c 2.767 0.102 4.15 0.142 6.912 0.214 C 0.86 -3.999 0.571 -2.661 0 0" stroke-linecap="round" />
</g>
	<g transform="matrix(2.09 0 0 -2.09 46.91 -32.86)" id="logo-logo"  >
<path style="stroke: none; stroke-width: 1; stroke-dasharray: none; stroke-linecap: butt; stroke-dashoffset: 0; stroke-linejoin: miter; stroke-miterlimit: 4; fill: rgb(52,109,191); fill-rule: nonzero; opacity: 1;"  paint-order="stroke"  transform=" translate(2.72, 3.41)" d="m 0 0 c -2.75 -0.04 -4.125 -0.067 -6.882 -0.138 c 0.569 -2.657 0.859 -4.002 1.435 -6.691 c 2.761 0.063 4.143 0.088 6.894 0.121 C 0.867 -4.011 0.576 -2.669 0 0" stroke-linecap="round" />
</g>
	<g transform="matrix(2.09 0 0 -2.09 80.41 -32.99)" id="logo-logo"  >
<path style="stroke: none; stroke-width: 1; stroke-dasharray: none; stroke-linecap: butt; stroke-dashoffset: 0; stroke-linejoin: miter; stroke-miterlimit: 4; fill: rgb(52,109,191); fill-rule: nonzero; opacity: 1;"  paint-order="stroke"  transform=" translate(2.69, 3.34)" d="m 0 0 c -2.733 0.04 -4.099 0.058 -6.839 0.064 c 0.581 -2.675 0.873 -4.025 1.46 -6.731 c 2.741 -0.017 4.111 -0.035 6.846 -0.084 C 0.878 -4.035 0.584 -2.681 0 0" stroke-linecap="round" />
</g>
	<g transform="matrix(2.09 0 0 -2.09 113.65 -32.09)" id="logo-logo"  >
<path style="stroke: none; stroke-width: 1; stroke-dasharray: none; stroke-linecap: butt; stroke-dashoffset: 0; stroke-linejoin: miter; stroke-miterlimit: 4; fill: rgb(52,109,191); fill-rule: nonzero; opacity: 1;"  paint-order="stroke"  transform=" translate(2.65, 3.25)" d="m 0 0 c -2.708 0.135 -4.062 0.19 -6.779 0.286 c 0.584 -2.691 0.876 -4.045 1.467 -6.768 c 2.718 -0.103 4.075 -0.164 6.785 -0.309 C 0.88 -4.061 0.586 -2.698 0 0" stroke-linecap="round" />
</g>
	<g transform="matrix(2.09 0 0 -2.09 130.14 -31.22)" id="logo-logo"  >
<path style="stroke: none; stroke-width: 1; stroke-dasharray: none; stroke-linecap: butt; stroke-dashoffset: 0; stroke-linejoin: miter; stroke-miterlimit: 4; fill: rgb(52,109,191); fill-rule: nonzero; opacity: 1;"  paint-order="stroke"  transform=" translate(2.64, 3.2)" d="m 0 0 c -2.691 0.183 -4.043 0.266 -6.749 0.412 c 0.584 -2.701 0.88 -4.06 1.468 -6.795 c 2.706 -0.147 4.052 -0.235 6.746 -0.424 C 0.878 -4.066 0.584 -2.7 0 0" stroke-linecap="round" />
</g>
	<g transform="matrix(2.09 0 0 -2.09 146.55 -30.05)" id="logo-logo"  >
<path style="stroke: none; stroke-width: 1; stroke-dasharray: none; stroke-linecap: butt; stroke-dashoffset: 0; stroke-linejoin: miter; stroke-miterlimit: 4; fill: rgb(52,109,191); fill-rule: nonzero; opacity: 1;"  paint-order="stroke"  transform=" translate(2.63, 3.15)" d="m 0 0 c -2.678 0.232 -4.021 0.339 -6.712 0.533 c 0.581 -2.706 0.875 -4.07 1.466 -6.816 c 2.687 -0.195 4.025 -0.307 6.699 -0.545 C 0.867 -4.081 0.579 -2.711 0 0" stroke-linecap="round" />
</g>
	<g transform="matrix(2.09 0 0 -2.09 -152.99 0.45)" id="logo-logo"  >
<path style="stroke: none; stroke-width: 1; stroke-dasharray: none; stroke-linecap: butt; stroke-dashoffset: 0; stroke-linejoin: miter; stroke-miterlimit: 4; fill: rgb(52,109,191); fill-rule: nonzero; opacity: 1;"  paint-order="stroke"  transform=" translate(2.86, 3.73)" d="m 0 0 c -2.765 -0.354 -4.145 -0.541 -6.9 -0.91 c 0.463 -2.618 0.698 -3.924 1.163 -6.544 c 2.766 0.368 4.149 0.549 6.92 0.904 C 0.709 -3.927 0.473 -2.611 0 0" stroke-linecap="round" />
</g>
	<g transform="matrix(2.09 0 0 -2.09 -136.1 -1.73)" id="logo-logo"  >
<path style="stroke: none; stroke-width: 1; stroke-dasharray: none; stroke-linecap: butt; stroke-dashoffset: 0; stroke-linejoin: miter; stroke-miterlimit: 4; fill: rgb(52,109,191); fill-rule: nonzero; opacity: 1;"  paint-order="stroke"  transform=" translate(2.85, 3.72)" d="m 0 0 c -2.768 -0.344 -4.154 -0.519 -6.917 -0.874 c 0.474 -2.62 0.711 -3.932 1.19 -6.559 c 2.772 0.355 4.163 0.525 6.943 0.865 C 0.726 -3.933 0.484 -2.621 0 0" stroke-linecap="round" />
</g>
	<g transform="matrix(2.09 0 0 -2.09 -119.18 -3.8)" id="logo-logo"  >
<path style="stroke: none; stroke-width: 1; stroke-dasharray: none; stroke-linecap: butt; stroke-dashoffset: 0; stroke-linejoin: miter; stroke-miterlimit: 4; fill: rgb(52,109,191); fill-rule: nonzero; opacity: 1;"  paint-order="stroke"  transform=" translate(2.85, 3.7)" d="m 0 0 c -2.776 -0.325 -4.163 -0.494 -6.936 -0.833 c 0.485 -2.626 0.728 -3.939 1.216 -6.573 c 2.783 0.337 4.174 0.502 6.959 0.821 C 0.742 -3.946 0.496 -2.625 0 0" stroke-linecap="round" />
</g>
	<g transform="matrix(2.09 0 0 -2.09 -102.22 -5.77)" id="logo-logo"  >
<path style="stroke: none; stroke-width: 1; stroke-dasharray: none; stroke-linecap: butt; stroke-dashoffset: 0; stroke-linejoin: miter; stroke-miterlimit: 4; fill: rgb(52,109,191); fill-rule: nonzero; opacity: 1;"  paint-order="stroke"  transform=" translate(2.84, 3.69)" d="m 0 0 c -2.781 -0.303 -4.169 -0.462 -6.945 -0.787 c 0.495 -2.626 0.744 -3.947 1.243 -6.584 c 2.788 0.316 4.182 0.469 6.97 0.772 C 0.76 -3.957 0.506 -2.635 0 0" stroke-linecap="round" />
</g>
	<g transform="matrix(2.09 0 0 -2.09 -68.23 -9.29)" id="logo-logo"  >
<path style="stroke: none; stroke-width: 1; stroke-dasharray: none; stroke-linecap: butt; stroke-dashoffset: 0; stroke-linejoin: miter; stroke-miterlimit: 4; fill: rgb(52,109,191); fill-rule: nonzero; opacity: 1;"  paint-order="stroke"  transform=" translate(2.82, 3.65)" d="m 0 0 c -2.785 -0.258 -4.177 -0.394 -6.961 -0.676 c 0.518 -2.641 0.778 -3.965 1.298 -6.62 c 2.794 0.275 4.19 0.407 6.984 0.658 C 0.792 -3.974 0.526 -2.645 0 0" stroke-linecap="round" />
</g>
	<g transform="matrix(2.09 0 0 -2.09 -51.22 -10.84)" id="logo-logo"  >
<path style="stroke: none; stroke-width: 1; stroke-dasharray: none; stroke-linecap: butt; stroke-dashoffset: 0; stroke-linejoin: miter; stroke-miterlimit: 4; fill: rgb(52,109,191); fill-rule: nonzero; opacity: 1;"  paint-order="stroke"  transform=" translate(2.81, 3.63)" d="m 0 0 c -2.783 -0.234 -4.178 -0.356 -6.961 -0.609 c 0.528 -2.652 0.792 -3.98 1.322 -6.641 c 2.795 0.248 4.192 0.368 6.983 0.597 C 0.805 -3.991 0.537 -2.659 0 0" stroke-linecap="round" />
</g>
	<g transform="matrix(2.09 0 0 -2.09 -34.21 -12.23)" id="logo-logo"  >
<path style="stroke: none; stroke-width: 1; stroke-dasharray: none; stroke-linecap: butt; stroke-dashoffset: 0; stroke-linejoin: miter; stroke-miterlimit: 4; fill: rgb(52,109,191); fill-rule: nonzero; opacity: 1;"  paint-order="stroke"  transform=" translate(2.79, 3.6)" d="m 0 0 c -2.783 -0.208 -4.174 -0.314 -6.959 -0.543 c 0.537 -2.654 0.809 -3.991 1.35 -6.653 c 2.793 0.217 4.189 0.326 6.981 0.521 C 0.823 -4.003 0.547 -2.665 0 0" stroke-linecap="round" />
</g>
	<g transform="matrix(2.09 0 0 -2.09 -0.24 -14.45)" id="logo-logo"  >
<path style="stroke: none; stroke-width: 1; stroke-dasharray: none; stroke-linecap: butt; stroke-dashoffset: 0; stroke-linejoin: miter; stroke-miterlimit: 4; fill: rgb(52,109,191); fill-rule: nonzero; opacity: 1;"  paint-order="stroke"  transform=" translate(2.77, 3.54)" d="m 0 0 c -2.774 -0.141 -4.166 -0.216 -6.945 -0.388 c 0.555 -2.671 0.835 -4.011 1.394 -6.694 c 2.789 0.163 4.181 0.24 6.964 0.368 C 0.846 -4.023 0.563 -2.679 0 0" stroke-linecap="round" />
</g>
	<g transform="matrix(2.09 0 0 -2.09 33.62 -15.89)" id="logo-logo"  >
<path style="stroke: none; stroke-width: 1; stroke-dasharray: none; stroke-linecap: butt; stroke-dashoffset: 0; stroke-linejoin: miter; stroke-miterlimit: 4; fill: rgb(52,109,191); fill-rule: nonzero; opacity: 1;"  paint-order="stroke"  transform=" translate(2.73, 3.48)" d="m 0 0 c -2.763 -0.072 -4.145 -0.115 -6.914 -0.215 c 0.57 -2.687 0.857 -4.036 1.434 -6.736 c 2.776 0.091 4.16 0.133 6.929 0.194 C 0.867 -4.052 0.578 -2.697 0 0" stroke-linecap="round" />
</g>
	<g transform="matrix(2.09 0 0 -2.09 67.29 -16.42)" id="logo-logo"  >
<path style="stroke: none; stroke-width: 1; stroke-dasharray: none; stroke-linecap: butt; stroke-dashoffset: 0; stroke-linejoin: miter; stroke-miterlimit: 4; fill: rgb(52,109,191); fill-rule: nonzero; opacity: 1;"  paint-order="stroke"  transform=" translate(2.7, 3.4)" d="m 0 0 c -2.746 0.011 -4.122 0.005 -6.874 -0.021 c 0.584 -2.701 0.876 -4.062 1.464 -6.78 c 2.757 0.018 4.136 0.018 6.882 0.002 C 0.881 -4.074 0.587 -2.711 0 0" stroke-linecap="round" />
</g>
	<g transform="matrix(2.09 0 0 -2.09 100.7 -15.92)" id="logo-logo"  >
<path style="stroke: none; stroke-width: 1; stroke-dasharray: none; stroke-linecap: butt; stroke-dashoffset: 0; stroke-linejoin: miter; stroke-miterlimit: 4; fill: rgb(52,109,191); fill-rule: nonzero; opacity: 1;"  paint-order="stroke"  transform=" translate(2.67, 3.33)" d="m 0 0 c -2.721 0.097 -4.085 0.134 -6.816 0.192 c 0.588 -2.719 0.883 -4.085 1.479 -6.821 C -2.603 -6.7 -1.235 -6.741 1.485 -6.846 C 0.887 -4.104 0.59 -2.729 0 0" stroke-linecap="round" />
</g>
	<g transform="matrix(2.09 0 0 -2.09 -150.09 16.58)" id="logo-logo"  >
<path style="stroke: none; stroke-width: 1; stroke-dasharray: none; stroke-linecap: butt; stroke-dashoffset: 0; stroke-linejoin: miter; stroke-miterlimit: 4; fill: rgb(52,109,191); fill-rule: nonzero; opacity: 1;"  paint-order="stroke"  transform=" translate(2.87, 3.72)" d="m 0 0 c -2.775 -0.352 -4.162 -0.535 -6.927 -0.901 c 0.467 -2.619 0.698 -3.931 1.169 -6.542 c 2.777 0.359 4.167 0.535 6.949 0.883 C 0.714 -3.939 0.475 -2.625 0 0" stroke-linecap="round" />
</g>
	<g transform="matrix(2.09 0 0 -2.09 -133.14 14.44)" id="logo-logo"  >
<path style="stroke: none; stroke-width: 1; stroke-dasharray: none; stroke-linecap: butt; stroke-dashoffset: 0; stroke-linejoin: miter; stroke-miterlimit: 4; fill: rgb(52,109,191); fill-rule: nonzero; opacity: 1;"  paint-order="stroke"  transform=" translate(2.86, 3.71)" d="m 0 0 c -2.782 -0.337 -4.172 -0.508 -6.947 -0.858 c 0.478 -2.63 0.718 -3.943 1.198 -6.564 c 2.784 0.343 4.178 0.514 6.969 0.847 C 0.731 -3.945 0.489 -2.631 0 0" stroke-linecap="round" />
</g>
	<g transform="matrix(2.09 0 0 -2.09 -116.14 12.41)" id="logo-logo"  >
<path style="stroke: none; stroke-width: 1; stroke-dasharray: none; stroke-linecap: butt; stroke-dashoffset: 0; stroke-linejoin: miter; stroke-miterlimit: 4; fill: rgb(52,109,191); fill-rule: nonzero; opacity: 1;"  paint-order="stroke"  transform=" translate(2.86, 3.7)" d="m 0 0 c -2.787 -0.314 -4.182 -0.482 -6.964 -0.816 c 0.486 -2.635 0.734 -3.95 1.224 -6.575 c 2.792 0.328 4.188 0.488 6.986 0.804 C 0.746 -3.954 0.497 -2.634 0 0" stroke-linecap="round" />
</g>
	<g transform="matrix(2.09 0 0 -2.09 -99.11 10.49)" id="logo-logo"  >
<path style="stroke: none; stroke-width: 1; stroke-dasharray: none; stroke-linecap: butt; stroke-dashoffset: 0; stroke-linejoin: miter; stroke-miterlimit: 4; fill: rgb(52,109,191); fill-rule: nonzero; opacity: 1;"  paint-order="stroke"  transform=" translate(2.85, 3.68)" d="m 0 0 c -2.792 -0.301 -4.187 -0.454 -6.975 -0.773 c 0.501 -2.637 0.748 -3.958 1.251 -6.592 c 2.797 0.31 4.198 0.458 6.998 0.751 C 0.764 -3.975 0.508 -2.648 0 0" stroke-linecap="round" />
</g>
	<g transform="matrix(2.09 0 0 -2.09 -82.06 8.7)" id="logo-logo"  >
<path style="stroke: none; stroke-width: 1; stroke-dasharray: none; stroke-linecap: butt; stroke-dashoffset: 0; stroke-linejoin: miter; stroke-miterlimit: 4; fill: rgb(52,109,191); fill-rule: nonzero; opacity: 1;"  paint-order="stroke"  transform=" translate(2.84, 3.66)" d="m 0 0 c -2.792 -0.275 -4.188 -0.419 -6.982 -0.715 c 0.511 -2.646 0.766 -3.972 1.281 -6.613 c 2.8 0.293 4.205 0.433 7.005 0.706 C 0.782 -3.976 0.521 -2.648 0 0" stroke-linecap="round" />
</g>
	<g transform="matrix(2.09 0 0 -2.09 -64.99 7.05)" id="logo-logo"  >
<path style="stroke: none; stroke-width: 1; stroke-dasharray: none; stroke-linecap: butt; stroke-dashoffset: 0; stroke-linejoin: miter; stroke-miterlimit: 4; fill: rgb(52,109,191); fill-rule: nonzero; opacity: 1;"  paint-order="stroke"  transform=" translate(2.83, 3.64)" d="m 0 0 c -2.792 -0.255 -4.19 -0.382 -6.984 -0.656 c 0.52 -2.654 0.78 -3.981 1.307 -6.631 c 2.802 0.266 4.204 0.398 7.01 0.639 C 0.799 -3.99 0.532 -2.661 0 0" stroke-linecap="round" />
</g>
	<g transform="matrix(2.09 0 0 -2.09 -47.92 5.54)" id="logo-logo"  >
<path style="stroke: none; stroke-width: 1; stroke-dasharray: none; stroke-linecap: butt; stroke-dashoffset: 0; stroke-linejoin: miter; stroke-miterlimit: 4; fill: rgb(52,109,191); fill-rule: nonzero; opacity: 1;"  paint-order="stroke"  transform=" translate(2.82, 3.62)" d="m 0 0 c -2.795 -0.226 -4.193 -0.347 -6.991 -0.59 c 0.534 -2.661 0.801 -3.994 1.335 -6.649 c 2.806 0.24 4.207 0.353 7.011 0.572 C 0.809 -4.003 0.54 -2.67 0 0" stroke-linecap="round" />
</g>
	<g transform="matrix(2.09 0 0 -2.09 -30.85 4.21)" id="logo-logo"  >
<path style="stroke: none; stroke-width: 1; stroke-dasharray: none; stroke-linecap: butt; stroke-dashoffset: 0; stroke-linejoin: miter; stroke-miterlimit: 4; fill: rgb(52,109,191); fill-rule: nonzero; opacity: 1;"  paint-order="stroke"  transform=" translate(2.8, 3.6)" d="m 0 0 c -2.792 -0.199 -4.189 -0.303 -6.982 -0.524 c 0.542 -2.669 0.814 -4.003 1.357 -6.666 c 2.805 0.211 4.208 0.316 7.007 0.505 C 0.825 -4.019 0.552 -2.68 0 0" stroke-linecap="round" />
</g>
	<g transform="matrix(2.09 0 0 -2.09 -13.79 3.05)" id="logo-logo"  >
<path style="stroke: none; stroke-width: 1; stroke-dasharray: none; stroke-linecap: butt; stroke-dashoffset: 0; stroke-linejoin: miter; stroke-miterlimit: 4; fill: rgb(52,109,191); fill-rule: nonzero; opacity: 1;"  paint-order="stroke"  transform=" translate(2.79, 3.57)" d="m 0 0 c -2.789 -0.166 -4.186 -0.255 -6.977 -0.447 c 0.552 -2.676 0.829 -4.018 1.384 -6.685 c 2.799 0.184 4.2 0.272 6.997 0.429 C 0.841 -4.027 0.559 -2.685 0 0" stroke-linecap="round" />
</g>
	<g transform="matrix(2.09 0 0 -2.09 3.24 2.08)" id="logo-logo"  >
<path style="stroke: none; stroke-width: 1; stroke-dasharray: none; stroke-linecap: butt; stroke-dashoffset: 0; stroke-linejoin: miter; stroke-miterlimit: 4; fill: rgb(52,109,191); fill-rule: nonzero; opacity: 1;"  paint-order="stroke"  transform=" translate(2.77, 3.54)" d="m 0 0 c -2.783 -0.134 -4.18 -0.207 -6.965 -0.367 c 0.56 -2.686 0.842 -4.028 1.404 -6.708 c 2.798 0.154 4.194 0.222 6.986 0.347 C 0.853 -4.039 0.568 -2.693 0 0" stroke-linecap="round" />
</g>
	<g transform="matrix(2.09 0 0 -2.09 20.23 1.31)" id="logo-logo"  >
<path style="stroke: none; stroke-width: 1; stroke-dasharray: none; stroke-linecap: butt; stroke-dashoffset: 0; stroke-linejoin: miter; stroke-miterlimit: 4; fill: rgb(52,109,191); fill-rule: nonzero; opacity: 1;"  paint-order="stroke"  transform=" translate(2.76, 3.5)" d="m 0 0 c -2.779 -0.098 -4.169 -0.158 -6.955 -0.284 c 0.57 -2.693 0.856 -4.038 1.43 -6.726 c 2.79 0.117 4.185 0.171 6.967 0.261 C 0.862 -4.052 0.574 -2.703 0 0" stroke-linecap="round" />
</g>
	<g transform="matrix(2.09 0 0 -2.09 37.19 0.76)" id="logo-logo"  >
<path style="stroke: none; stroke-width: 1; stroke-dasharray: none; stroke-linecap: butt; stroke-dashoffset: 0; stroke-linejoin: miter; stroke-miterlimit: 4; fill: rgb(52,109,191); fill-rule: nonzero; opacity: 1;"  paint-order="stroke"  transform=" translate(2.74, 3.47)" d="m 0 0 c -2.771 -0.061 -4.155 -0.098 -6.932 -0.192 c 0.578 -2.7 0.866 -4.054 1.448 -6.75 c 2.78 0.085 4.172 0.12 6.945 0.174 C 0.873 -4.062 0.58 -2.707 0 0" stroke-linecap="round" />
</g>
	<g transform="matrix(2.09 0 0 -2.09 54.08 0.43)" id="logo-logo"  >
<path style="stroke: none; stroke-width: 1; stroke-dasharray: none; stroke-linecap: butt; stroke-dashoffset: 0; stroke-linejoin: miter; stroke-miterlimit: 4; fill: rgb(52,109,191); fill-rule: nonzero; opacity: 1;"  paint-order="stroke"  transform=" translate(2.72, 3.43)" d="m 0 0 c -2.76 -0.019 -4.144 -0.04 -6.914 -0.095 c 0.589 -2.707 0.879 -4.067 1.467 -6.77 c 2.773 0.05 4.156 0.063 6.921 0.075 C 0.88 -4.077 0.586 -2.715 0 0" stroke-linecap="round" />
</g>
	<g transform="matrix(2.09 0 0 -2.09 87.69 0.52)" id="logo-logo"  >
<path style="stroke: none; stroke-width: 1; stroke-dasharray: none; stroke-linecap: butt; stroke-dashoffset: 0; stroke-linejoin: miter; stroke-miterlimit: 4; fill: rgb(52,109,191); fill-rule: nonzero; opacity: 1;"  paint-order="stroke"  transform=" translate(2.68, 3.36)" d="m 0 0 c -2.738 0.062 -4.107 0.085 -6.854 0.108 c 0.594 -2.726 0.89 -4.092 1.489 -6.815 c 2.749 -0.032 4.121 -0.06 6.859 -0.127 C 0.893 -4.103 0.595 -2.734 0 0" stroke-linecap="round" />
</g>
	<g transform="matrix(2.09 0 0 -2.09 104.37 0.94)" id="logo-logo"  >
<path style="stroke: none; stroke-width: 1; stroke-dasharray: none; stroke-linecap: butt; stroke-dashoffset: 0; stroke-linejoin: miter; stroke-miterlimit: 4; fill: rgb(52,109,191); fill-rule: nonzero; opacity: 1;"  paint-order="stroke"  transform=" translate(2.66, 3.32)" d="m 0 0 c -2.72 0.109 -4.085 0.149 -6.817 0.222 c 0.593 -2.74 0.893 -4.112 1.496 -6.844 c 2.735 -0.075 4.1 -0.125 6.823 -0.235 C 0.898 -4.122 0.6 -2.745 0 0" stroke-linecap="round" />
</g>
	<g transform="matrix(2.09 0 0 -2.09 137.45 2.62)" id="logo-logo"  >
<path style="stroke: none; stroke-width: 1; stroke-dasharray: none; stroke-linecap: butt; stroke-dashoffset: 0; stroke-linejoin: miter; stroke-miterlimit: 4; fill: rgb(52,109,191); fill-rule: nonzero; opacity: 1;"  paint-order="stroke"  transform=" translate(2.62, 3.23)" d="m 0 0 c -2.688 0.202 -4.036 0.292 -6.74 0.451 c 0.596 -2.754 0.896 -4.134 1.5 -6.886 c 2.703 -0.169 4.053 -0.266 6.738 -0.474 C 0.896 -4.148 0.598 -2.765 0 0" stroke-linecap="round" />
</g>
	<g transform="matrix(2.09 0 0 -2.09 -147.17 32.7)" id="logo-logo"  >
<path style="stroke: none; stroke-width: 1; stroke-dasharray: none; stroke-linecap: butt; stroke-dashoffset: 0; stroke-linejoin: miter; stroke-miterlimit: 4; fill: rgb(52,109,191); fill-rule: nonzero; opacity: 1;"  paint-order="stroke"  transform=" translate(2.88, 3.71)" d="m 0 0 c -2.786 -0.349 -4.178 -0.526 -6.955 -0.889 c 0.471 -2.614 0.706 -3.92 1.179 -6.527 c 2.785 0.357 4.18 0.534 6.974 0.875 C 0.718 -3.933 0.48 -2.62 0 0" stroke-linecap="round" />
</g>
	<g transform="matrix(2.09 0 0 -2.09 -130.15 30.6)" id="logo-logo"  >
<path style="stroke: none; stroke-width: 1; stroke-dasharray: none; stroke-linecap: butt; stroke-dashoffset: 0; stroke-linejoin: miter; stroke-miterlimit: 4; fill: rgb(52,109,191); fill-rule: nonzero; opacity: 1;"  paint-order="stroke"  transform=" translate(2.87, 3.69)" d="m 0 0 c -2.794 -0.328 -4.187 -0.498 -6.975 -0.847 c 0.479 -2.618 0.719 -3.929 1.202 -6.536 c 2.797 0.34 4.197 0.505 7 0.832 C 0.735 -3.938 0.486 -2.624 0 0" stroke-linecap="round" />
</g>
	<g transform="matrix(2.09 0 0 -2.09 -113.09 28.6)" id="logo-logo"  >
<path style="stroke: none; stroke-width: 1; stroke-dasharray: none; stroke-linecap: butt; stroke-dashoffset: 0; stroke-linejoin: miter; stroke-miterlimit: 4; fill: rgb(52,109,191); fill-rule: nonzero; opacity: 1;"  paint-order="stroke"  transform=" translate(2.87, 3.68)" d="m 0 0 c -2.797 -0.315 -4.196 -0.477 -6.988 -0.806 c 0.49 -2.627 0.736 -3.941 1.23 -6.552 c 2.802 0.323 4.207 0.482 7.016 0.787 C 0.753 -3.951 0.501 -2.637 0 0" stroke-linecap="round" />
</g>
	<g transform="matrix(2.09 0 0 -2.09 -95.99 26.73)" id="logo-logo"  >
<path style="stroke: none; stroke-width: 1; stroke-dasharray: none; stroke-linecap: butt; stroke-dashoffset: 0; stroke-linejoin: miter; stroke-miterlimit: 4; fill: rgb(52,109,191); fill-rule: nonzero; opacity: 1;"  paint-order="stroke"  transform=" translate(2.86, 3.66)" d="m 0 0 c -2.801 -0.289 -4.201 -0.441 -7.001 -0.75 c 0.503 -2.631 0.753 -3.946 1.259 -6.569 c 2.808 0.302 4.214 0.454 7.025 0.739 C 0.769 -3.957 0.512 -2.64 0 0" stroke-linecap="round" />
</g>
	<g transform="matrix(2.09 0 0 -2.09 -78.87 24.97)" id="logo-logo"  >
<path style="stroke: none; stroke-width: 1; stroke-dasharray: none; stroke-linecap: butt; stroke-dashoffset: 0; stroke-linejoin: miter; stroke-miterlimit: 4; fill: rgb(52,109,191); fill-rule: nonzero; opacity: 1;"  paint-order="stroke"  transform=" translate(2.85, 3.64)" d="m 0 0 c -2.806 -0.267 -4.205 -0.408 -7.011 -0.695 c 0.515 -2.64 0.771 -3.96 1.289 -6.584 c 2.813 0.283 4.22 0.419 7.034 0.684 C 0.787 -3.966 0.522 -2.646 0 0" stroke-linecap="round" />
</g>
	<g transform="matrix(2.09 0 0 -2.09 -61.73 23.36)" id="logo-logo"  >
<path style="stroke: none; stroke-width: 1; stroke-dasharray: none; stroke-linecap: butt; stroke-dashoffset: 0; stroke-linejoin: miter; stroke-miterlimit: 4; fill: rgb(52,109,191); fill-rule: nonzero; opacity: 1;"  paint-order="stroke"  transform=" translate(2.84, 3.62)" d="m 0 0 c -2.809 -0.245 -4.21 -0.371 -7.013 -0.635 c 0.525 -2.647 0.787 -3.97 1.315 -6.599 c 2.814 0.256 4.222 0.384 7.035 0.62 C 0.801 -3.978 0.534 -2.651 0 0" stroke-linecap="round" />
</g>
	<g transform="matrix(2.09 0 0 -2.09 -44.59 21.91)" id="logo-logo"  >
<path style="stroke: none; stroke-width: 1; stroke-dasharray: none; stroke-linecap: butt; stroke-dashoffset: 0; stroke-linejoin: miter; stroke-miterlimit: 4; fill: rgb(52,109,191); fill-rule: nonzero; opacity: 1;"  paint-order="stroke"  transform=" translate(2.83, 3.59)" d="m 0 0 c -2.806 -0.215 -4.208 -0.33 -7.015 -0.568 c 0.538 -2.658 0.804 -3.978 1.344 -6.618 c 2.814 0.235 4.223 0.346 7.035 0.556 C 0.817 -3.988 0.544 -2.658 0 0" stroke-linecap="round" />
</g>
	<g transform="matrix(2.09 0 0 -2.09 -10.35 19.5)" id="logo-logo"  >
<path style="stroke: none; stroke-width: 1; stroke-dasharray: none; stroke-linecap: butt; stroke-dashoffset: 0; stroke-linejoin: miter; stroke-miterlimit: 4; fill: rgb(52,109,191); fill-rule: nonzero; opacity: 1;"  paint-order="stroke"  transform=" translate(2.79, 3.54)" d="m 0 0 c -2.799 -0.157 -4.198 -0.242 -7.003 -0.425 c 0.557 -2.666 0.835 -4.003 1.394 -6.649 c 2.812 0.173 4.217 0.261 7.023 0.406 C 0.849 -4.009 0.565 -2.676 0 0" stroke-linecap="round" />
</g>
	<g transform="matrix(2.09 0 0 -2.09 6.74 18.58)" id="logo-logo"  >
<path style="stroke: none; stroke-width: 1; stroke-dasharray: none; stroke-linecap: butt; stroke-dashoffset: 0; stroke-linejoin: miter; stroke-miterlimit: 4; fill: rgb(52,109,191); fill-rule: nonzero; opacity: 1;"  paint-order="stroke"  transform=" translate(2.77, 3.51)" d="m 0 0 c -2.79 -0.124 -4.188 -0.191 -6.987 -0.341 c 0.567 -2.68 0.85 -4.018 1.42 -6.674 c 2.802 0.15 4.205 0.214 7.005 0.33 C 0.861 -4.02 0.573 -2.681 0 0" stroke-linecap="round" />
</g>
	<g transform="matrix(2.09 0 0 -2.09 23.78 17.87)" id="logo-logo"  >
<path style="stroke: none; stroke-width: 1; stroke-dasharray: none; stroke-linecap: butt; stroke-dashoffset: 0; stroke-linejoin: miter; stroke-miterlimit: 4; fill: rgb(52,109,191); fill-rule: nonzero; opacity: 1;"  paint-order="stroke"  transform=" translate(2.76, 3.47)" d="m 0 0 c -2.786 -0.087 -4.18 -0.14 -6.972 -0.259 c 0.576 -2.685 0.865 -4.023 1.441 -6.69 c 2.8 0.114 4.197 0.164 6.986 0.244 C 0.872 -4.036 0.581 -2.69 0 0" stroke-linecap="round" />
</g>
	<g transform="matrix(2.09 0 0 -2.09 57.72 17.08)" id="logo-logo"  >
<path style="stroke: none; stroke-width: 1; stroke-dasharray: none; stroke-linecap: butt; stroke-dashoffset: 0; stroke-linejoin: miter; stroke-miterlimit: 4; fill: rgb(52,109,191); fill-rule: nonzero; opacity: 1;"  paint-order="stroke"  transform=" translate(2.72, 3.4)" d="m 0 0 c -2.765 -0.016 -4.149 -0.028 -6.924 -0.078 c 0.588 -2.698 0.885 -4.048 1.478 -6.724 c 2.777 0.039 4.166 0.047 6.934 0.055 C 0.894 -4.065 0.594 -2.707 0 0" stroke-linecap="round" />
</g>
	<g transform="matrix(2.09 0 0 -2.09 108.08 17.75)" id="logo-logo"  >
<path style="stroke: none; stroke-width: 1; stroke-dasharray: none; stroke-linecap: butt; stroke-dashoffset: 0; stroke-linejoin: miter; stroke-miterlimit: 4; fill: rgb(52,109,191); fill-rule: nonzero; opacity: 1;"  paint-order="stroke"  transform=" translate(2.65, 3.29)" d="m 0 0 c -2.723 0.116 -4.087 0.163 -6.823 0.24 c 0.601 -2.728 0.903 -4.086 1.512 -6.791 c 2.739 -0.086 4.103 -0.138 6.828 -0.259 C 0.906 -4.103 0.604 -2.735 0 0" stroke-linecap="round" />
</g>
	<g transform="matrix(2.09 0 0 -2.09 -144.24 48.74)" id="logo-logo"  >
<path style="stroke: none; stroke-width: 1; stroke-dasharray: none; stroke-linecap: butt; stroke-dashoffset: 0; stroke-linejoin: miter; stroke-miterlimit: 4; fill: rgb(52,109,191); fill-rule: nonzero; opacity: 1;"  paint-order="stroke"  transform=" translate(2.89, 3.68)" d="m 0 0 c -2.795 -0.342 -4.191 -0.521 -6.979 -0.873 c 0.47 -2.6 0.705 -3.901 1.179 -6.481 c 2.8 0.352 4.201 0.527 7.004 0.866 C 0.724 -3.904 0.481 -2.606 0 0" stroke-linecap="round" />
</g>
	<g transform="matrix(2.09 0 0 -2.09 -127.15 46.66)" id="logo-logo"  >
<path style="stroke: none; stroke-width: 1; stroke-dasharray: none; stroke-linecap: butt; stroke-dashoffset: 0; stroke-linejoin: miter; stroke-miterlimit: 4; fill: rgb(52,109,191); fill-rule: nonzero; opacity: 1;"  paint-order="stroke"  transform=" translate(2.88, 3.66)" d="m 0 0 c -2.803 -0.325 -4.205 -0.493 -6.999 -0.836 c 0.482 -2.607 0.724 -3.903 1.209 -6.486 c 2.805 0.337 4.21 0.501 7.025 0.824 C 0.741 -3.913 0.493 -2.611 0 0" stroke-linecap="round" />
</g>
	<g transform="matrix(2.09 0 0 -2.09 -110.02 44.69)" id="logo-logo"  >
<path style="stroke: none; stroke-width: 1; stroke-dasharray: none; stroke-linecap: butt; stroke-dashoffset: 0; stroke-linejoin: miter; stroke-miterlimit: 4; fill: rgb(52,109,191); fill-rule: nonzero; opacity: 1;"  paint-order="stroke"  transform=" translate(2.88, 3.64)" d="m 0 0 c -2.81 -0.306 -4.212 -0.464 -7.019 -0.785 c 0.494 -2.611 0.741 -3.912 1.238 -6.498 c 2.813 0.317 4.224 0.471 7.045 0.774 C 0.757 -3.917 0.503 -2.616 0 0" stroke-linecap="round" />
</g>
	<g transform="matrix(2.09 0 0 -2.09 -92.85 42.85)" id="logo-logo"  >
<path style="stroke: none; stroke-width: 1; stroke-dasharray: none; stroke-linecap: butt; stroke-dashoffset: 0; stroke-linejoin: miter; stroke-miterlimit: 4; fill: rgb(52,109,191); fill-rule: nonzero; opacity: 1;"  paint-order="stroke"  transform=" translate(2.87, 3.62)" d="m 0 0 c -2.813 -0.288 -4.22 -0.433 -7.031 -0.736 c 0.506 -2.618 0.759 -3.919 1.267 -6.509 c 2.822 0.297 4.231 0.443 7.057 0.726 C 0.775 -3.924 0.517 -2.622 0 0" stroke-linecap="round" />
</g>
	<g transform="matrix(2.09 0 0 -2.09 -75.66 41.13)" id="logo-logo"  >
<path style="stroke: none; stroke-width: 1; stroke-dasharray: none; stroke-linecap: butt; stroke-dashoffset: 0; stroke-linejoin: miter; stroke-miterlimit: 4; fill: rgb(52,109,191); fill-rule: nonzero; opacity: 1;"  paint-order="stroke"  transform=" translate(2.86, 3.6)" d="m 0 0 c -2.816 -0.264 -4.223 -0.399 -7.04 -0.679 c 0.518 -2.622 0.777 -3.928 1.295 -6.524 c 2.825 0.278 4.238 0.412 7.063 0.673 C 0.79 -3.936 0.525 -2.627 0 0" stroke-linecap="round" />
</g>
	<g transform="matrix(2.09 0 0 -2.09 -58.45 39.56)" id="logo-logo"  >
<path style="stroke: none; stroke-width: 1; stroke-dasharray: none; stroke-linecap: butt; stroke-dashoffset: 0; stroke-linejoin: miter; stroke-miterlimit: 4; fill: rgb(52,109,191); fill-rule: nonzero; opacity: 1;"  paint-order="stroke"  transform=" translate(2.85, 3.58)" d="m 0 0 c -2.818 -0.235 -4.225 -0.358 -7.044 -0.62 c 0.529 -2.63 0.794 -3.933 1.324 -6.534 c 2.824 0.254 4.241 0.378 7.068 0.612 C 0.807 -3.942 0.536 -2.629 0 0" stroke-linecap="round" />
</g>
	<g transform="matrix(2.09 0 0 -2.09 -41.25 38.14)" id="logo-logo"  >
<path style="stroke: none; stroke-width: 1; stroke-dasharray: none; stroke-linecap: butt; stroke-dashoffset: 0; stroke-linejoin: miter; stroke-miterlimit: 4; fill: rgb(52,109,191); fill-rule: nonzero; opacity: 1;"  paint-order="stroke"  transform=" translate(2.83, 3.55)" d="m 0 0 c -2.813 -0.214 -4.223 -0.324 -7.04 -0.555 c 0.542 -2.633 0.81 -3.946 1.35 -6.547 c 2.828 0.227 4.239 0.339 7.064 0.542 C 0.826 -3.954 0.55 -2.641 0 0" stroke-linecap="round" />
</g>
	<g transform="matrix(2.09 0 0 -2.09 -24.05 36.89)" id="logo-logo"  >
<path style="stroke: none; stroke-width: 1; stroke-dasharray: none; stroke-linecap: butt; stroke-dashoffset: 0; stroke-linejoin: miter; stroke-miterlimit: 4; fill: rgb(52,109,191); fill-rule: nonzero; opacity: 1;"  paint-order="stroke"  transform=" translate(2.82, 3.52)" d="m 0 0 c -2.814 -0.18 -4.22 -0.276 -7.035 -0.482 c 0.549 -2.639 0.826 -3.955 1.377 -6.559 c 2.825 0.199 4.238 0.294 7.057 0.47 C 0.837 -3.963 0.558 -2.647 0 0" stroke-linecap="round" />
</g>
	<g transform="matrix(2.09 0 0 -2.09 -6.87 35.81)" id="logo-logo"  >
<path style="stroke: none; stroke-width: 1; stroke-dasharray: none; stroke-linecap: butt; stroke-dashoffset: 0; stroke-linejoin: miter; stroke-miterlimit: 4; fill: rgb(52,109,191); fill-rule: nonzero; opacity: 1;"  paint-order="stroke"  transform=" translate(2.8, 3.49)" d="m 0 0 c -2.805 -0.148 -4.212 -0.235 -7.021 -0.406 c 0.559 -2.646 0.838 -3.963 1.402 -6.574 c 2.819 0.173 4.228 0.25 7.044 0.396 C 0.854 -3.972 0.57 -2.653 0 0" stroke-linecap="round" />
</g>
	<g transform="matrix(2.09 0 0 -2.09 10.27 34.93)" id="logo-logo"  >
<path style="stroke: none; stroke-width: 1; stroke-dasharray: none; stroke-linecap: butt; stroke-dashoffset: 0; stroke-linejoin: miter; stroke-miterlimit: 4; fill: rgb(52,109,191); fill-rule: nonzero; opacity: 1;"  paint-order="stroke"  transform=" translate(2.78, 3.46)" d="m 0 0 c -2.802 -0.116 -4.202 -0.181 -7.011 -0.329 c 0.569 -2.649 0.858 -3.968 1.429 -6.585 c 2.815 0.14 4.22 0.205 7.028 0.316 C 0.864 -3.98 0.575 -2.66 0 0" stroke-linecap="round" />
</g>
	<g transform="matrix(2.09 0 0 -2.09 27.37 34.26)" id="logo-logo"  >
<path style="stroke: none; stroke-width: 1; stroke-dasharray: none; stroke-linecap: butt; stroke-dashoffset: 0; stroke-linejoin: miter; stroke-miterlimit: 4; fill: rgb(52,109,191); fill-rule: nonzero; opacity: 1;"  paint-order="stroke"  transform=" translate(2.76, 3.42)" d="m 0 0 c -2.791 -0.079 -4.189 -0.128 -6.992 -0.241 c 0.58 -2.659 0.869 -3.979 1.452 -6.603 c 2.808 0.111 4.208 0.152 7.009 0.229 C 0.88 -3.99 0.586 -2.663 0 0" stroke-linecap="round" />
</g>
	<g transform="matrix(2.09 0 0 -2.09 44.41 33.79)" id="logo-logo"  >
<path style="stroke: none; stroke-width: 1; stroke-dasharray: none; stroke-linecap: butt; stroke-dashoffset: 0; stroke-linejoin: miter; stroke-miterlimit: 4; fill: rgb(52,109,191); fill-rule: nonzero; opacity: 1;"  paint-order="stroke"  transform=" translate(2.74, 3.38)" d="m 0 0 c -2.783 -0.04 -4.176 -0.071 -6.967 -0.15 c 0.587 -2.663 0.879 -3.99 1.468 -6.612 c 2.799 0.07 4.195 0.096 6.984 0.133 C 0.89 -3.999 0.594 -2.671 0 0" stroke-linecap="round" />
</g>
	<g transform="matrix(2.09 0 0 -2.09 95.11 33.84)" id="logo-logo"  >
<path style="stroke: none; stroke-width: 1; stroke-dasharray: none; stroke-linecap: butt; stroke-dashoffset: 0; stroke-linejoin: miter; stroke-miterlimit: 4; fill: rgb(52,109,191); fill-rule: nonzero; opacity: 1;"  paint-order="stroke"  transform=" translate(2.67, 3.26)" d="m 0 0 c -2.742 0.085 -4.115 0.113 -6.871 0.159 c 0.605 -2.693 0.909 -4.028 1.517 -6.669 c 2.759 -0.052 4.131 -0.079 6.876 -0.169 C 0.911 -4.032 0.605 -2.689 0 0" stroke-linecap="round" />
</g>
	<g transform="matrix(2.09 0 0 -2.09 128.43 35.18)" id="logo-logo"  >
<path style="stroke: none; stroke-width: 1; stroke-dasharray: none; stroke-linecap: butt; stroke-dashoffset: 0; stroke-linejoin: miter; stroke-miterlimit: 4; fill: rgb(52,109,191); fill-rule: nonzero; opacity: 1;"  paint-order="stroke"  transform=" translate(2.63, 3.17)" d="m 0 0 c -2.706 0.169 -4.062 0.247 -6.782 0.378 c 0.608 -2.702 0.915 -4.047 1.528 -6.698 c 2.723 -0.141 4.078 -0.221 6.782 -0.4 C 0.915 -4.059 0.607 -2.713 0 0" stroke-linecap="round" />
</g>
	<g transform="matrix(2.09 0 0 -2.09 -141.29 64.62)" id="logo-logo"  >
<path style="stroke: none; stroke-width: 1; stroke-dasharray: none; stroke-linecap: butt; stroke-dashoffset: 0; stroke-linejoin: miter; stroke-miterlimit: 4; fill: rgb(52,109,191); fill-rule: nonzero; opacity: 1;"  paint-order="stroke"  transform=" translate(2.9, 3.64)" d="m 0 0 c -2.808 -0.338 -4.208 -0.509 -7.008 -0.865 c 0.473 -2.576 0.711 -3.861 1.185 -6.409 c 2.808 0.353 4.218 0.524 7.036 0.863 C 0.725 -3.864 0.485 -2.578 0 0" stroke-linecap="round" />
</g>
	<g transform="matrix(2.09 0 0 -2.09 -124.13 62.57)" id="logo-logo"  >
<path style="stroke: none; stroke-width: 1; stroke-dasharray: none; stroke-linecap: butt; stroke-dashoffset: 0; stroke-linejoin: miter; stroke-miterlimit: 4; fill: rgb(52,109,191); fill-rule: nonzero; opacity: 1;"  paint-order="stroke"  transform=" translate(2.89, 3.62)" d="m 0 0 c -2.815 -0.323 -4.222 -0.489 -7.029 -0.827 c 0.485 -2.577 0.727 -3.861 1.214 -6.413 c 2.819 0.34 4.23 0.503 7.055 0.823 C 0.745 -3.865 0.496 -2.586 0 0" stroke-linecap="round" />
</g>
	<g transform="matrix(2.09 0 0 -2.09 -106.93 60.62)" id="logo-logo"  >
<path style="stroke: none; stroke-width: 1; stroke-dasharray: none; stroke-linecap: butt; stroke-dashoffset: 0; stroke-linejoin: miter; stroke-miterlimit: 4; fill: rgb(52,109,191); fill-rule: nonzero; opacity: 1;"  paint-order="stroke"  transform=" translate(2.89, 3.6)" d="m 0 0 c -2.824 -0.299 -4.235 -0.459 -7.05 -0.777 c 0.498 -2.582 0.746 -3.868 1.244 -6.414 c 2.828 0.316 4.242 0.472 7.073 0.773 C 0.759 -3.866 0.505 -2.585 0 0" stroke-linecap="round" />
</g>
	<g transform="matrix(2.09 0 0 -2.09 -89.69 58.79)" id="logo-logo"  >
<path style="stroke: none; stroke-width: 1; stroke-dasharray: none; stroke-linecap: butt; stroke-dashoffset: 0; stroke-linejoin: miter; stroke-miterlimit: 4; fill: rgb(52,109,191); fill-rule: nonzero; opacity: 1;"  paint-order="stroke"  transform=" translate(2.88, 3.57)" d="m 0 0 c -2.826 -0.281 -4.239 -0.427 -7.061 -0.728 c 0.509 -2.585 0.764 -3.868 1.272 -6.414 c 2.834 0.294 4.252 0.442 7.088 0.723 C 0.778 -3.87 0.519 -2.59 0 0" stroke-linecap="round" />
</g>
	<g transform="matrix(2.09 0 0 -2.09 -55.15 55.54)" id="logo-logo"  >
<path style="stroke: none; stroke-width: 1; stroke-dasharray: none; stroke-linecap: butt; stroke-dashoffset: 0; stroke-linejoin: miter; stroke-miterlimit: 4; fill: rgb(52,109,191); fill-rule: nonzero; opacity: 1;"  paint-order="stroke"  transform=" translate(2.85, 3.52)" d="m 0 0 c -2.825 -0.231 -4.239 -0.352 -7.069 -0.607 c 0.532 -2.593 0.798 -3.878 1.33 -6.428 c 2.838 0.254 4.26 0.373 7.098 0.601 C 0.815 -3.884 0.543 -2.594 0 0" stroke-linecap="round" />
</g>
	<g transform="matrix(2.09 0 0 -2.09 -37.88 54.14)" id="logo-logo"  >
<path style="stroke: none; stroke-width: 1; stroke-dasharray: none; stroke-linecap: butt; stroke-dashoffset: 0; stroke-linejoin: miter; stroke-miterlimit: 4; fill: rgb(52,109,191); fill-rule: nonzero; opacity: 1;"  paint-order="stroke"  transform=" translate(2.84, 3.49)" d="m 0 0 c -2.826 -0.205 -4.239 -0.31 -7.067 -0.543 c 0.542 -2.594 0.814 -3.883 1.359 -6.433 c 2.836 0.225 4.256 0.336 7.09 0.537 C 0.83 -3.89 0.551 -2.598 0 0" stroke-linecap="round" />
</g>
	<g transform="matrix(2.09 0 0 -2.09 -20.62 52.92)" id="logo-logo"  >
<path style="stroke: none; stroke-width: 1; stroke-dasharray: none; stroke-linecap: butt; stroke-dashoffset: 0; stroke-linejoin: miter; stroke-miterlimit: 4; fill: rgb(52,109,191); fill-rule: nonzero; opacity: 1;"  paint-order="stroke"  transform=" translate(2.82, 3.46)" d="m 0 0 c -2.821 -0.177 -4.234 -0.27 -7.061 -0.472 c 0.556 -2.6 0.833 -3.885 1.389 -6.441 c 2.836 0.2 4.25 0.294 7.084 0.466 C 0.846 -3.894 0.565 -2.602 0 0" stroke-linecap="round" />
</g>
	<g transform="matrix(2.09 0 0 -2.09 -3.38 51.87)" id="logo-logo"  >
<path style="stroke: none; stroke-width: 1; stroke-dasharray: none; stroke-linecap: butt; stroke-dashoffset: 0; stroke-linejoin: miter; stroke-miterlimit: 4; fill: rgb(52,109,191); fill-rule: nonzero; opacity: 1;"  paint-order="stroke"  transform=" translate(2.81, 3.42)" d="m 0 0 c -2.816 -0.145 -4.226 -0.222 -7.047 -0.393 c 0.565 -2.603 0.845 -3.895 1.413 -6.447 c 2.831 0.163 4.246 0.241 7.07 0.383 C 0.861 -3.902 0.573 -2.604 0 0" stroke-linecap="round" />
</g>
	<g transform="matrix(2.09 0 0 -2.09 30.97 50.37)" id="logo-logo"  >
<path style="stroke: none; stroke-width: 1; stroke-dasharray: none; stroke-linecap: butt; stroke-dashoffset: 0; stroke-linejoin: miter; stroke-miterlimit: 4; fill: rgb(52,109,191); fill-rule: nonzero; opacity: 1;"  paint-order="stroke"  transform=" translate(2.77, 3.34)" d="m 0 0 c -2.8 -0.073 -4.202 -0.121 -7.011 -0.229 c 0.583 -2.611 0.877 -3.906 1.461 -6.46 c 2.818 0.102 4.221 0.145 7.029 0.214 C 0.887 -3.912 0.59 -2.618 0 0" stroke-linecap="round" />
</g>
</g>
<g transform="matrix(1.57 0 0 1.57 513.57 650.49)"  >
<filter id="SVGID_453066" y="-20%" height="140%" x="-20%" width="140%" >
	<feGaussianBlur in="SourceAlpha" stdDeviation="0"></feGaussianBlur>
	<feOffset dx="0" dy="0" result="oBlur" ></feOffset>
	<feFlood flood-color="rgb(0,0,0)" flood-opacity="1"/>
	<feComposite in2="oBlur" operator="in" />
	<feMerge>
		<feMergeNode></feMergeNode>
		<feMergeNode in="SourceGraphic"></feMergeNode>
	</feMerge>
</filter>
<path style="stroke: none; stroke-width: 1; stroke-dasharray: none; stroke-linecap: butt; stroke-dashoffset: 0; stroke-linejoin: miter; stroke-miterlimit: 4; fill: rgb(52,108,188); fill-rule: nonzero; opacity: 1;filter: url(#SVGID_453066);"  paint-order="stroke"  transform=" translate(-86.87, 24.5)" d="M 12.68 0 L 1.4 0 L 1.4 -49.01 L 12.68 -49.01 L 12.68 0 Z M 38.04 0 L 15.45 0 L 15.45 -11.28 L 38.04 -11.28 Q 39.65 -11.35 40.74 -12.42 Q 41.84 -13.5 41.84 -15.04 L 41.84 -15.04 Q 41.84 -16.65 40.76 -17.74 Q 39.68 -18.83 38.04 -18.83 L 38.04 -18.83 L 30.49 -18.83 Q 27.34 -18.83 24.61 -20.03 Q 21.88 -21.23 19.86 -23.28 Q 17.84 -25.33 16.65 -28.06 Q 15.45 -30.8 15.45 -33.94 L 15.45 -33.94 Q 15.45 -37.08 16.65 -39.82 Q 17.84 -42.55 19.86 -44.59 Q 21.88 -46.62 24.61 -47.82 Q 27.34 -49.01 30.49 -49.01 L 30.49 -49.01 L 45.56 -49.01 L 45.56 -37.67 L 30.49 -37.67 Q 28.88 -37.67 27.81 -36.57 Q 26.73 -35.48 26.73 -33.94 L 26.73 -33.94 Q 26.73 -32.33 27.81 -31.26 Q 28.88 -30.18 30.49 -30.18 L 30.49 -30.18 L 38.04 -30.18 Q 41.19 -30.18 43.92 -28.98 Q 46.66 -27.79 48.69 -25.72 Q 50.72 -23.65 51.92 -20.92 Q 53.12 -18.18 53.12 -15.04 L 53.12 -15.04 Q 53.12 -11.89 51.92 -9.16 Q 50.72 -6.43 48.69 -4.41 Q 46.66 -2.39 43.94 -1.2 Q 41.22 0 38.04 0 L 38.04 0 Z M 65.08 0 L 53.8 0 L 66.89 -49.01 L 67.03 -49.01 L 78.24 -49.01 L 78.37 -49.01 L 91.46 0 L 80.19 0 L 72.63 -28.13 L 65.08 0 Z M 105.51 0 L 94.23 0 L 107.32 -49.01 L 107.46 -49.01 L 118.67 -49.01 L 118.81 -49.01 L 131.9 0 L 120.62 0 L 113.07 -28.13 L 105.51 0 Z M 145.95 0 L 134.67 0 L 134.67 -33.94 Q 134.67 -37.08 135.86 -39.82 Q 137.06 -42.55 139.08 -44.59 Q 141.09 -46.62 143.83 -47.82 Q 146.56 -49.01 149.71 -49.01 L 149.71 -49.01 L 157.26 -49.01 Q 160.41 -49.01 163.14 -47.82 Q 165.87 -46.62 167.91 -44.59 Q 169.94 -42.55 171.14 -39.82 Q 172.33 -37.08 172.33 -33.94 L 172.33 -33.94 L 172.33 0 L 161.05 0 L 161.05 -33.94 Q 161.05 -35.48 159.98 -36.61 Q 158.9 -37.73 157.26 -37.73 L 157.26 -37.73 L 149.71 -37.73 Q 148.1 -37.73 147.02 -36.61 Q 145.95 -35.48 145.95 -33.94 L 145.95 -33.94 L 145.95 0 Z" stroke-linecap="round" />
</g>
</svg>