<?xml version="1.0" encoding="UTF-8" standalone="no"?>
<!DOCTYPE svg PUBLIC "-//W3C//DTD SVG 1.1//EN" "http://www.w3.org/Graphics/SVG/1.1/DTD/svg11.dtd">
<svg width="24" height="24" viewBox="0 0 24 24" version="1.1" xmlns="http://www.w3.org/2000/svg" xmlns:xlink="http://www.w3.org/1999/xlink" xml:space="preserve" xmlns:serif="http://www.serif.com/" style="fill-rule:evenodd;clip-rule:evenodd;stroke-linecap:round;stroke-linejoin:round;">
    <rect id="Artboard1" x="0" y="0" width="24" height="24" style="fill:none;"/>
    <g id="Artboard11" serif:id="Artboard1">
        <g transform="matrix(1.16667,0,0,1.16667,-2,-2)">
            <path d="M21,12C21,16.937 16.937,21 12,21C7.063,21 3,16.937 3,12C3,7.063 7.063,3 12,3C16.937,3 21,7.063 21,12Z" style="fill:white;fill-rule:nonzero;stroke:black;stroke-width:2px;"/>
        </g>
        <g transform="matrix(0.875,0,0,0.875,3.25,3.25)">
            <path d="M4,2C4.549,2 5,2.451 5,3L5,5.101C6.316,3.758 8.12,3.001 10,3.001C12.96,3.001 15.614,4.877 16.601,7.667C16.645,7.782 16.668,7.904 16.668,8.027C16.668,8.575 16.217,9.027 15.668,9.027C15.235,9.027 14.849,8.745 14.716,8.333C14.011,6.34 12.115,4.999 10,4.999C8.427,4.999 6.943,5.742 5.999,7L9,7C9.549,7 10,7.451 10,8C10,8.549 9.549,9 9,9L4,9C3.451,9 3,8.549 3,8L3,3C3,2.451 3.451,2 4,2ZM4.008,11.057C4.115,11.019 4.228,11 4.341,11C4.764,11 5.143,11.268 5.284,11.667C5.989,13.66 7.885,15.001 10,15.001C11.573,15.001 13.057,14.258 14.001,13L11,13C10.451,13 10,12.549 10,12C10,11.451 10.451,11 11,11L16,11C16.549,11 17,11.451 17,12L17,17C17,17.549 16.549,18 16,18C15.451,18 15,17.549 15,17L15,14.899C13.684,16.242 11.88,16.999 10,16.999C7.04,16.999 4.386,15.123 3.399,12.333C3.361,12.226 3.342,12.113 3.342,12C3.342,11.577 3.61,11.198 4.009,11.057L4.008,11.057Z"/>
        </g>
    </g>
</svg>
