<?xml version="1.0" encoding="UTF-8" standalone="no"?>
<!DOCTYPE svg PUBLIC "-//W3C//DTD SVG 1.1//EN" "http://www.w3.org/Graphics/SVG/1.1/DTD/svg11.dtd">
<svg width="100%" height="100%" viewBox="0 0 20 20" version="1.1" xmlns="http://www.w3.org/2000/svg" xmlns:xlink="http://www.w3.org/1999/xlink" xml:space="preserve" xmlns:serif="http://www.serif.com/" fill="currentColor" style="fill-rule:evenodd;clip-rule:evenodd;stroke-linejoin:round;stroke-miterlimit:2;">
    <path d="M10,0C10.549,0 11,0.451 11,1L11,4C11,4.549 10.549,5 10,5C9.451,5 9,4.549 9,4L9,1C9,0.451 9.451,0 10,0ZM14,10C14,12.194 12.194,14 10,14C7.806,14 6,12.194 6,10C6,7.806 7.806,6 10,6C12.194,6 14,7.806 14,10ZM13.536,14.95L16.243,17.657C16.429,17.837 16.679,17.938 16.938,17.938C17.486,17.938 17.938,17.486 17.938,16.938C17.938,16.679 17.837,16.429 17.657,16.243L14.95,13.536C14.764,13.356 14.514,13.255 14.255,13.255C13.707,13.255 13.255,13.707 13.255,14.255C13.255,14.514 13.356,14.764 13.536,14.95ZM17.656,2.343C18.044,2.731 18.044,3.369 17.656,3.757L14.95,6.464C14.762,6.659 14.502,6.769 14.231,6.769C13.682,6.769 13.231,6.318 13.231,5.769C13.231,5.498 13.341,5.238 13.536,5.05L16.243,2.343C16.631,1.955 17.269,1.955 17.657,2.343L17.656,2.343ZM19,11C19.549,11 20,10.549 20,10C20,9.451 19.549,9 19,9L16,9C15.451,9 15,9.451 15,10C15,10.549 15.451,11 16,11L19,11ZM10,15C10.549,15 11,15.451 11,16L11,19C11,19.549 10.549,20 10,20C9.451,20 9,19.549 9,19L9,16C9,15.451 9.451,15 10,15ZM5.05,6.464C5.238,6.652 5.492,6.757 5.758,6.757C6.306,6.757 6.758,6.306 6.758,5.757C6.758,5.492 6.652,5.237 6.465,5.05L3.757,2.343C3.571,2.163 3.321,2.062 3.062,2.062C2.514,2.062 2.062,2.514 2.062,3.062C2.062,3.321 2.163,3.571 2.343,3.757L5.05,6.464ZM6.464,14.95L3.757,17.657C3.571,17.837 3.321,17.938 3.062,17.938C2.514,17.938 2.062,17.486 2.062,16.938C2.062,16.679 2.163,16.429 2.343,16.243L5.05,13.536C5.236,13.356 5.486,13.255 5.745,13.255C6.293,13.255 6.745,13.707 6.745,14.255C6.745,14.514 6.644,14.764 6.464,14.95ZM4,11C4.549,11 5,10.549 5,10C5,9.451 4.549,9 4,9L1,9C0.451,9 0,9.451 0,10C0,10.549 0.451,11 1,11L4,11Z"/>
</svg>
