<?xml version="1.0" encoding="UTF-8" standalone="no"?>
<!DOCTYPE svg PUBLIC "-//W3C//DTD SVG 1.1//EN" "http://www.w3.org/Graphics/SVG/1.1/DTD/svg11.dtd">
<svg width="100%" height="100%" viewBox="0 0 20 20" version="1.1" xmlns="http://www.w3.org/2000/svg" xmlns:xlink="http://www.w3.org/1999/xlink" xml:space="preserve" xmlns:serif="http://www.serif.com/" fill="currentColor" style="fill-rule:evenodd;clip-rule:evenodd;stroke-linejoin:round;stroke-miterlimit:2;">
    <path d="M10,3C10.549,3 11,3.451 11,4C11,4.549 10.549,5 10,5C9.451,5 9,4.549 9,4C9,3.451 9.451,3 10,3ZM14,10C14,12.194 12.194,14 10,14C7.806,14 6,12.194 6,10C6,7.806 7.806,6 10,6C12.194,6 14,7.806 14,10ZM16,11C16.549,11 17,10.549 17,10C17,9.451 16.549,9 16,9C15.451,9 15,9.451 15,10C15,10.549 15.451,11 16,11ZM10,15C10.549,15 11,15.451 11,16C11,16.549 10.549,17 10,17C9.451,17 9,16.549 9,16C9,15.451 9.451,15 10,15ZM4,11C4.549,11 5,10.549 5,10C5,9.451 4.549,9 4,9C3.451,9 3,9.451 3,10C3,10.549 3.451,11 4,11Z"/>
    <g transform="matrix(1,0,0,1,0.75,-0.75)">
        <circle cx="5" cy="15" r="1"/>
    </g>
    <g transform="matrix(1,0,0,1,0.75,-9.25)">
        <circle cx="5" cy="15" r="1"/>
    </g>
    <g transform="matrix(1,0,0,1,9.25,-0.75)">
        <circle cx="5" cy="15" r="1"/>
    </g>
    <g transform="matrix(1,0,0,1,9.25,-9.25)">
        <circle cx="5" cy="15" r="1"/>
    </g>
</svg>
